<?xml version="1.0" encoding="UTF-8"?><svg id="_レイヤー_1" xmlns="http://www.w3.org/2000/svg" width="131.2" height="142.34" viewBox="0 0 131.2 142.34"><defs><style>.cls-1{fill:none;stroke:#231815;stroke-miterlimit:10;}</style></defs><circle class="cls-1" cx="65.6" cy="71.17" r="50"/><polygon class="cls-1" points="55.27 121.17 75.94 121.17 73.1 141.84 58.1 141.84 55.27 121.17"/><polygon class="cls-1" points="103.74 105.12 114.07 87.22 130.55 100.01 123.05 113 103.74 105.12"/><polygon class="cls-1" points="114.07 55.12 103.74 37.22 123.05 29.34 130.55 42.33 114.07 55.12"/><polygon class="cls-1" points="75.94 21.17 55.27 21.17 58.1 .5 73.1 .5 75.94 21.17"/><polygon class="cls-1" points="27.47 37.22 17.13 55.12 .65 42.33 8.15 29.34 27.47 37.22"/><polygon class="cls-1" points="17.13 87.22 27.47 105.12 8.15 113 .65 100.01 17.13 87.22"/></svg>