<?xml version="1.0" encoding="UTF-8"?><svg id="_レイヤー_1" xmlns="http://www.w3.org/2000/svg" width="2261.58" height="1699.98" viewBox="0 0 2261.58 1699.98"><defs><style>.cls-1{stroke-width:2.54px;}.cls-1,.cls-2,.cls-3,.cls-4{fill:none;stroke:#000;stroke-linecap:round;stroke-linejoin:round;}.cls-5,.cls-2{font-size:35.28px;}.cls-5,.cls-2,.cls-6{font-family:ShinMGoPro-Regular-83pv-RKSJ-H, 'A-OTF Shin Maru Go Pro';}.cls-7,.cls-8,.cls-9{font-family:#82l#82r#20#82o#83S#83V#83b#83N, '#82l#82r#20#82o#83S#83V#83b#83N 83pv-RKSJ-H';}.cls-7,.cls-10{font-size:63.51px;}.cls-11,.cls-12{fill-rule:evenodd;}.cls-11,.cls-13{fill:#fff;}.cls-8{font-size:42.34px;}.cls-9{font-size:21.17px;}.cls-10{font-family:HG#8a#db#ba#de#bc#af#b8M-PRO, 'HG#8a#db#ba#de#bc#af#b8M PRO-83pv-RKSJ-H';}.cls-2{stroke-width:.01px;}.cls-3{stroke-width:.5px;}.cls-4{stroke-width:.85px;}.cls-14{fill:#231815;font-size:12px;}.cls-15{font-family:KozGoPr6N-Regular-83pv-RKSJ-H, 'Kozuka Gothic Pr6N';}</style></defs><rect x="398.14" y="1398.68" width="20" height="280.03"/><rect class="cls-1" x="398.14" y="1398.68" width="20" height="280.03"/><rect x="399.66" y="623.88" width="1860.17" height="20"/><rect class="cls-1" x="399.66" y="623.88" width="1860.17" height="20"/><rect x="2240.14" y="624.89" width="20" height="1053.82"/><rect class="cls-1" x="2240.14" y="624.89" width="20" height="1053.82"/><rect x="398.14" y="1678.71" width="200.02" height="20"/><rect class="cls-1" x="398.14" y="1678.71" width="200.02" height="20"/><rect x="698.17" y="1678.71" width="1330.14" height="20"/><rect class="cls-1" x="698.17" y="1678.71" width="1330.14" height="20"/><rect x="2128.3" y="1678.71" width="132.01" height="20"/><rect class="cls-1" x="2128.3" y="1678.71" width="132.01" height="20"/><rect x="398.14" y="624.87" width="20" height="573.78"/><rect class="cls-1" x="398.14" y="624.87" width="20" height="573.78"/><path class="cls-1" d="M397.65,1098.34c-55.25,0-100.02,44.77-100.02,100.02s44.77,99.99,100.02,99.99"/><path class="cls-1" d="M397.65,1298.35c-55.25,0-100.02,44.77-100.02,100.02s44.77,100.02,100.02,100.02"/><path class="cls-1" d="M2027.82,1678.4c0-55.25,44.77-100.02,99.99-100.02"/><line class="cls-1" x1="2127.81" y1="1678.4" x2="2127.81" y2="1578.38"/><path class="cls-1" d="M697.68,1678.4c0-55.25-44.77-100.02-100.02-100.02"/><line class="cls-1" x1="597.66" y1="1678.4" x2="597.66" y2="1578.38"/><text class="cls-8" transform="translate(973.41 517.65)"><tspan x="0" y="0">1</tspan></text><text class="cls-8" transform="translate(994.57 517.65)"><tspan x="0" y="0">階</tspan></text><text class="cls-8" transform="translate(1036.91 517.65)"><tspan x="0" y="0">　</tspan></text><text class="cls-7" transform="translate(1065.03 517.65)"><tspan x="0" y="0">桜</tspan></text><text class="cls-7" transform="translate(1128.54 517.65)"><tspan x="0" y="0">の</tspan></text><text class="cls-7" transform="translate(1192.04 517.65)"><tspan x="0" y="0">間</tspan></text><text class="cls-8" transform="translate(1255.55 517.65)"><tspan x="0" y="0">　</tspan></text><text class="cls-8" transform="translate(1283.67 517.65)"><tspan x="0" y="0">1</tspan></text><text class="cls-8" transform="translate(1304.84 517.65)"><tspan x="0" y="0">6</tspan></text><text class="cls-8" transform="translate(1326.01 517.65)"><tspan x="0" y="0">6</tspan></text><text class="cls-8" transform="translate(1347.17 517.65)"><tspan x="0" y="0">Ｍ</tspan></text><text class="cls-8" transform="translate(1386.7 517.65)"><tspan x="0" y="0">　</tspan></text><text class="cls-8" transform="translate(1414.82 517.65)"><tspan x="0" y="0">（</tspan></text><text class="cls-8" transform="translate(1435.98 517.65)"><tspan x="0" y="0">5</tspan></text><text class="cls-8" transform="translate(1457.15 517.65)"><tspan x="0" y="0">0</tspan></text><text class="cls-8" transform="translate(1478.31 517.65)"><tspan x="0" y="0">Ｔ</tspan></text><text class="cls-8" transform="translate(1504.45 517.65)"><tspan x="0" y="0">）</tspan></text><text class="cls-8" transform="translate(1525.62 517.65)"><tspan x="0" y="0">　</tspan></text><text class="cls-8" transform="translate(1553.73 517.65)"><tspan x="0" y="0">ｓ</tspan></text><text class="cls-8" transform="translate(1577.88 517.65)"><tspan x="0" y="0">＝</tspan></text><text class="cls-8" transform="translate(1620.22 517.65)"><tspan x="0" y="0">1</tspan></text><text class="cls-8" transform="translate(1641.39 517.65)"><tspan x="0" y="0">：</tspan></text><text class="cls-8" transform="translate(1662.56 517.65)"><tspan x="0" y="0">1</tspan></text><text class="cls-8" transform="translate(1683.73 517.65)"><tspan x="0" y="0">0</tspan></text><text class="cls-8" transform="translate(1704.89 517.65)"><tspan x="0" y="0">0</tspan></text><text class="cls-9" transform="translate(1395.51 498.07)"><tspan x="0" y="0">2</tspan></text><text class="cls-10" transform="translate(35.39 55.89)"><tspan x="0" y="0">ユ</tspan></text><text class="cls-10" transform="translate(98.89 55.89)"><tspan x="0" y="0">ニ</tspan></text><text class="cls-10" transform="translate(162.4 55.89)"><tspan x="0" y="0">コ</tspan></text><text class="cls-10" transform="translate(225.91 55.89)"><tspan x="0" y="0">ー</tspan></text><text class="cls-10" transform="translate(289.41 55.89)"><tspan x="0" y="0">ン</tspan></text><text class="cls-10" transform="translate(352.92 55.89)"><tspan x="0" y="0">ホ</tspan></text><text class="cls-10" transform="translate(416.42 55.89)"><tspan x="0" y="0">テ</tspan></text><text class="cls-10" transform="translate(479.93 55.89)"><tspan x="0" y="0">ル</tspan></text><text class="cls-8" transform="translate(6.22 187.94)"><tspan x="0" y="0">宴</tspan></text><text class="cls-8" transform="translate(48.55 187.94)"><tspan x="0" y="0">会</tspan></text><text class="cls-8" transform="translate(90.89 187.94)"><tspan x="0" y="0">日</tspan></text><text class="cls-8" transform="translate(133.23 187.94)"><tspan x="0" y="0">：</tspan></text><text class="cls-8" transform="translate(154.4 187.94)"><tspan x="0" y="0">　</tspan></text><text class="cls-8" transform="translate(182.52 187.94)"><tspan x="0" y="0">　</tspan></text><text class="cls-8" transform="translate(210.63 187.94)"><tspan x="0" y="0">　</tspan></text><text class="cls-8" transform="translate(238.75 187.94)"><tspan x="0" y="0">　</tspan></text><text class="cls-8" transform="translate(266.86 187.94)"><tspan x="0" y="0">　</tspan></text><text class="cls-8" transform="translate(294.98 187.94)"><tspan x="0" y="0">　</tspan></text><text class="cls-8" transform="translate(323.1 187.94)"><tspan x="0" y="0">年</tspan></text><text class="cls-8" transform="translate(365.43 187.94)"><tspan x="0" y="0">　</tspan></text><text class="cls-8" transform="translate(393.55 187.94)"><tspan x="0" y="0">　</tspan></text><text class="cls-8" transform="translate(421.67 187.94)"><tspan x="0" y="0">　</tspan></text><text class="cls-8" transform="translate(449.78 187.94)"><tspan x="0" y="0">　</tspan></text><text class="cls-8" transform="translate(477.9 187.94)"><tspan x="0" y="0">　</tspan></text><text class="cls-8" transform="translate(506.01 187.94)"><tspan x="0" y="0">　</tspan></text><text class="cls-8" transform="translate(534.12 187.94)"><tspan x="0" y="0">月</tspan></text><text class="cls-8" transform="translate(576.45 187.94)"><tspan x="0" y="0">　</tspan></text><text class="cls-8" transform="translate(604.57 187.94)"><tspan x="0" y="0">　</tspan></text><text class="cls-8" transform="translate(632.68 187.94)"><tspan x="0" y="0">　</tspan></text><text class="cls-8" transform="translate(660.8 187.94)"><tspan x="0" y="0">　</tspan></text><text class="cls-8" transform="translate(688.92 187.94)"><tspan x="0" y="0">　</tspan></text><text class="cls-8" transform="translate(717.03 187.94)"><tspan x="0" y="0">　</tspan></text><text class="cls-8" transform="translate(745.17 187.94)"><tspan x="0" y="0">日</tspan></text><text class="cls-8" transform="translate(787.51 187.94)"><tspan x="0" y="0">（</tspan></text><text class="cls-8" transform="translate(808.68 187.94)"><tspan x="0" y="0">　</tspan></text><text class="cls-8" transform="translate(836.79 187.94)"><tspan x="0" y="0">　</tspan></text><text class="cls-8" transform="translate(864.91 187.94)"><tspan x="0" y="0">　</tspan></text><text class="cls-8" transform="translate(893.02 187.94)"><tspan x="0" y="0">　</tspan></text><text class="cls-8" transform="translate(921.14 187.94)"><tspan x="0" y="0">　</tspan></text><text class="cls-8" transform="translate(949.25 187.94)"><tspan x="0" y="0">）</tspan></text><text class="cls-8" transform="translate(6.22 295.87)"><tspan x="0" y="0">会</tspan></text><text class="cls-8" transform="translate(48.55 295.87)"><tspan x="0" y="0">合</tspan></text><text class="cls-8" transform="translate(90.89 295.87)"><tspan x="0" y="0">名</tspan></text><text class="cls-8" transform="translate(133.23 295.87)"><tspan x="0" y="0">：</tspan></text><text class="cls-8" transform="translate(154.4 295.87)"><tspan x="0" y="0">　</tspan></text><text class="cls-8" transform="translate(182.52 295.87)"><tspan x="0" y="0">　</tspan></text><text class="cls-8" transform="translate(210.63 295.87)"><tspan x="0" y="0">　</tspan></text><text class="cls-8" transform="translate(238.75 295.87)"><tspan x="0" y="0">　</tspan></text><text class="cls-8" transform="translate(266.86 295.87)"><tspan x="0" y="0">　</tspan></text><text class="cls-8" transform="translate(294.98 295.87)"><tspan x="0" y="0">　</tspan></text><text class="cls-8" transform="translate(323.09 295.87)"><tspan x="0" y="0">　</tspan></text><text class="cls-8" transform="translate(351.21 295.87)"><tspan x="0" y="0">　</tspan></text><text class="cls-8" transform="translate(379.32 295.87)"><tspan x="0" y="0">　</tspan></text><text class="cls-8" transform="translate(407.44 295.87)"><tspan x="0" y="0">　</tspan></text><text class="cls-8" transform="translate(435.56 295.87)"><tspan x="0" y="0">　</tspan></text><line class="cls-1" x1="1.27" y1="206.82" x2="1001.38" y2="206.85"/><line class="cls-1" x1="1.27" y1="316.86" x2="1001.38" y2="316.86"/><path class="cls-11" d="M2240.14,1333.39v87.64-87.64ZM418.14,1333.39v87.64-87.64Z"/><path class="cls-4" d="M2240.14,1333.39v87.64-87.64M418.14,1333.39v87.64-87.64"/><path class="cls-4" d="M1329.14,1368.67h891.21M1329.14,1368.67H437.94"/><polygon class="cls-12" points="439.74 1375.87 418.14 1368.67 439.74 1361.47 439.74 1375.87"/><polygon class="cls-12" points="2218.55 1361.47 2240.14 1368.67 2218.55 1375.87 2218.55 1361.47"/><rect class="cls-13" x="1271.67" y="1317.51" width="114.94" height="42.34"/><text class="cls-5" transform="translate(1271.67 1349.27)"><tspan x="0" y="0">1</tspan></text><text class="cls-2" transform="translate(1271.67 1349.27)"><tspan x="0" y="0">1</tspan></text><text class="cls-5" transform="translate(1289.45 1349.27)"><tspan x="0" y="0">8</tspan></text><text class="cls-2" transform="translate(1289.45 1349.27)"><tspan x="0" y="0">8</tspan></text><text class="cls-5" transform="translate(1307.23 1349.27)"><tspan x="0" y="0">2</tspan></text><text class="cls-2" transform="translate(1307.23 1349.27)"><tspan x="0" y="0">2</tspan></text><text class="cls-5" transform="translate(1325.01 1349.27)"><tspan x="0" y="0">2</tspan></text><text class="cls-2" transform="translate(1325.01 1349.27)"><tspan x="0" y="0">2</tspan></text><text class="cls-5" transform="translate(1342.8 1349.27)"><tspan x="0" y="0">c</tspan></text><text class="cls-2" transform="translate(1342.8 1349.27)"><tspan x="0" y="0">c</tspan></text><text class="cls-5" transform="translate(1360.58 1349.27)"><tspan x="0" y="0">m</tspan></text><text class="cls-2" transform="translate(1360.58 1349.27)"><tspan x="0" y="0">m</tspan></text><path class="cls-11" d="M443.62,643.88h87.64-87.64ZM443.62,1678.71h87.64-87.64Z"/><path class="cls-4" d="M443.62,643.88h87.64-87.64M443.62,1678.71h87.64-87.64"/><path class="cls-4" d="M478.9,1161.29v-497.61M478.9,1161.29v497.63"/><polygon class="cls-12" points="486.1 1657.12 478.9 1678.71 471.7 1657.12 486.1 1657.12"/><polygon class="cls-12" points="471.7 665.48 478.9 643.88 486.1 665.48 471.7 665.48"/><rect class="cls-13" x="427.74" y="1103.82" width="42.34" height="114.94"/><text class="cls-5" transform="translate(459.49 1218.76) rotate(-90)"><tspan x="0" y="0">1</tspan></text><text class="cls-2" transform="translate(459.49 1218.76) rotate(-90)"><tspan x="0" y="0">1</tspan></text><text class="cls-5" transform="translate(459.49 1200.98) rotate(-90)"><tspan x="0" y="0">0</tspan></text><text class="cls-2" transform="translate(459.49 1200.98) rotate(-90)"><tspan x="0" y="0">0</tspan></text><text class="cls-5" transform="translate(459.49 1183.2) rotate(-90)"><tspan x="0" y="0">3</tspan></text><text class="cls-2" transform="translate(459.49 1183.2) rotate(-90)"><tspan x="0" y="0">3</tspan></text><text class="cls-5" transform="translate(459.5 1165.42) rotate(-90)"><tspan x="0" y="0">5</tspan></text><text class="cls-2" transform="translate(459.5 1165.42) rotate(-90)"><tspan x="0" y="0">5</tspan></text><text class="cls-5" transform="translate(459.49 1147.67) rotate(-90)"><tspan x="0" y="0">c</tspan></text><text class="cls-2" transform="translate(459.49 1147.67) rotate(-90)"><tspan x="0" y="0">c</tspan></text><text class="cls-5" transform="translate(459.49 1129.89) rotate(-90)"><tspan x="0" y="0">m</tspan></text><text class="cls-2" transform="translate(459.49 1129.89) rotate(-90)"><tspan x="0" y="0">m</tspan></text><rect class="cls-3" x="160.13" y="778.27" width="101" height="100"/><text class="cls-14" transform="translate(160.13 765.25)"><tspan class="cls-6" x="0" y="0">100cm</tspan><tspan class="cls-15" x="40.88" y="0">×100cm</tspan></text></svg>