<?xml version="1.0" encoding="UTF-8"?>
<svg width="3810.35" height="2524.07" viewBox="0 0 3810.35 2524.07" id="_レイヤー_1" xmlns="http://www.w3.org/2000/svg">
    <defs>
        <style>
            .cls-1, .cls-2, .cls-3, .cls-4, .cls-5, .cls-6, .cls-7 {
                fill: none;
                stroke: #000;
                stroke-linecap: round;
                stroke-linejoin: round;
            }
            .cls-1, .cls-3 {
                stroke-width: 2.54px;
            }
            .cls-8, .cls-9 {
                fill-rule: evenodd;
            }
            .cls-8, .cls-10 {
                fill: #fff;
            }
            .cls-11 {
                font-size: 63.5px;
            }
            .cls-11, .cls-12, .cls-13, .cls-14, .cls-15, .cls-6 {
                font-family: KozGoPr6N-Regular-83pv-RKSJ-H, 'Kozuka Gothic Pr6N';
            }
            .cls-12 {
                font-size: 21.17px;
            }
            .cls-13, .cls-6 {
                font-size: 35.28px;
            }
            .cls-14, .cls-15 {
                font-size: 42.33px;
            }
            .cls-3 {
                stroke-dasharray: 0 12.7;
            }
            .cls-4 {
                stroke-width: .5px;
            }
            .cls-5 {
                stroke-width: .85px;
            }
            .cls-16 {
                letter-spacing: -.25em;
            }
            .cls-15 {
                fill: #231815;
            }
            .cls-6 {
                stroke-width: .01px;
            }
            .cls-7 {
                stroke-width: .1px;
            }
        </style>
    </defs>
	<rect x="1239.11" y="2186.81" width="100" height="100"/>
	<rect class="cls-1" x="1239.11" y="2186.81" width="100" height="100"/>
	<rect x="1849.1" y="2186.81" width="100" height="100"/>
	<rect class="cls-1" x="1849.1" y="2186.81" width="100" height="100"/>
	<rect x="2459.09" y="2186.81" width="100" height="100"/>
	<rect class="cls-1" x="2459.09" y="2186.81" width="100" height="100"/>
	<rect x="3069.11" y="2186.81" width="100" height="100"/>
	<rect class="cls-1" x="3069.11" y="2186.81" width="100" height="100"/>
	<rect x="1239.11" y="1386.82" width="100" height="100"/>
	<rect class="cls-1" x="1239.11" y="1386.82" width="100" height="100"/>
	<rect x="1239.11" y="1936.81" width="20" height="350"/>
	<rect class="cls-1" x="1239.11" y="1936.81" width="20" height="350"/>
	<rect x="1239.11" y="586.81" width="20" height="1149.98"/>
	<rect class="cls-1" x="1239.11" y="586.81" width="20" height="1149.98"/>
	<rect x="3709.08" y="856.82" width="20" height="1509.99"/>
	<rect class="cls-1" x="3709.08" y="856.82" width="20" height="1509.99"/>
	<rect x="1259.11" y="856.79" width="280" height="20"/>
	<rect class="cls-1" x="1259.11" y="856.79" width="280" height="20"/>
	<rect x="1239.11" y="2186.8" width="860" height="20"/>
	<rect class="cls-1" x="1239.11" y="2186.8" width="860" height="20"/>
	<rect x="2299.1" y="2186.8" width="415.01" height="20"/>
	<rect class="cls-1" x="2299.1" y="2186.8" width="415.01" height="20"/>
	<rect x="2914.1" y="2186.8" width="415.01" height="20"/>
	<rect class="cls-1" x="2914.1" y="2186.8" width="415.01" height="20"/>
	<rect x="3529.1" y="2186.8" width="200" height="20"/>
	<rect class="cls-1" x="3529.1" y="2186.8" width="200" height="20"/>
	<rect x="1639.09" y="856.79" width="530.01" height="20"/>
	<rect class="cls-1" x="1639.09" y="856.79" width="530.01" height="20"/>
	<rect x="2269.12" y="856.79" width="170" height="20"/>
	<rect class="cls-1" x="2269.12" y="856.79" width="170" height="20"/>
	<rect x="2481.1" y="856.79" width="60" height="20"/>
	<rect class="cls-1" x="2481.1" y="856.79" width="60" height="20"/>
	<rect x="2579.1" y="856.79" width="816.01" height="20"/>
	<rect class="cls-1" x="2579.1" y="856.79" width="816.01" height="20"/>
	<rect x="3495.09" y="856.79" width="234" height="20"/>
	<rect class="cls-1" x="3495.09" y="856.79" width="234" height="20"/>
	<line class="cls-3" x1="2459.09" y1="856.82" x2="2459.09" y2="2286.81"/>
	<line class="cls-3" x1="2559.1" y1="856.82" x2="2559.1" y2="2286.81"/>
	<rect x="3729.08" y="2336.8" width="80" height="20"/>
	<rect class="cls-1" x="3729.08" y="2336.8" width="80" height="20"/>
	<path class="cls-1" d="M1639.09,856.82c0,55.21-44.77,99.98-99.98,99.98"/>
	<line class="cls-1" x1="1539.11" y1="856.82" x2="1539.11" y2="956.8"/>
	<path class="cls-1" d="M2167.09,856.82c0,55.21,44.77,99.98,100.01,99.98"/>
	<line class="cls-1" x1="2267.11" y1="856.82" x2="2267.11" y2="956.8"/>
	<path class="cls-1" d="M3395.11,856.82c0,55.21,44.77,99.98,99.98,99.98"/>
	<line class="cls-1" x1="3495.09" y1="856.82" x2="3495.09" y2="956.8"/>
	<path class="cls-1" d="M1237.1,1636.81c-55.21,0-100.01,44.77-100.01,99.98s44.8,100.01,100.01,100.01"/>
	<path class="cls-1" d="M1237.1,1836.8c-55.21,0-100.01,44.77-100.01,100.01s44.8,99.98,100.01,99.98"/>
	<path class="cls-1" d="M1999.1,2206.8c0,55.24,44.77,100.01,100.01,100.01s99.98-44.77,99.98-100.01"/>
	<path class="cls-1" d="M2199.09,2206.8c0,55.24,44.77,100.01,100.01,100.01s100.01-44.77,100.01-100.01"/>
	<path class="cls-1" d="M2615.08,2206.8c0,55.24,44.8,100.01,100.01,100.01s100.01-44.77,100.01-100.01"/>
	<path class="cls-1" d="M2815.11,2206.8c0,55.24,44.77,100.01,99.98,100.01s100.01-44.77,100.01-100.01"/>
	<path class="cls-1" d="M3229.09,2206.8c0,55.24,44.77,100.01,100.01,100.01s99.98-44.77,99.98-100.01"/>
	<path class="cls-1" d="M3429.08,2206.8c0,55.24,44.8,100.01,100.01,100.01s100.01-44.77,100.01-100.01"/>
	<line class="cls-1" x1="137.1" y1="2522.8" x2="3707.11" y2="2522.8"/>
	<path class="cls-1" d="M3709.08,2453.21c51.51,3.77,90.17-34.92,86.43-86.4"/>
	<line class="cls-1" x1="3709.08" y1="2366.82" x2="3795.51" y2="2366.82"/>
	<path class="cls-1" d="M3709.08,2454.94c41.95-13.3,65.16,9.93,51.86,51.87"/>
	<line class="cls-1" x1="3709.08" y1="2506.81" x2="3760.94" y2="2506.81"/>
	<line class="cls-1" x1="3707.11" y1="2506.81" x2="3707.11" y2="2522.8"/>
	<line class="cls-1" x1="3722.1" y1="2522.8" x2="3792.09" y2="2522.8"/>
	<line class="cls-1" x1="3722.1" y1="2506.81" x2="3722.1" y2="2522.8"/>
	<line class="cls-1" x1="137.1" y1="2522.8" x2="137.1" y2="586.81"/>
	<line class="cls-3" x1="1239.11" y1="586.81" x2="137.1" y2="586.81"/>
	<rect x="629.09" y="586.82" width="100" height="100"/>
	<rect class="cls-1" x="629.09" y="586.82" width="100" height="100"/>
	<rect x="629.09" y="1386.82" width="100" height="100"/>
	<rect class="cls-1" x="629.09" y="1386.82" width="100" height="100"/>
	<rect x="629.09" y="2186.81" width="100" height="100"/>
	<rect class="cls-1" x="629.09" y="2186.81" width="100" height="100"/>
	<polyline class="cls-3" points="137.1 1876.81 452.1 1876.81 452.1 586.81 137.1 586.81 137.1 1876.81"/>
    <text class="cls-14" transform="translate(268.16 1117.1)"><tspan x="0" y="0">エスカレーター</tspan></text>
    <text class="cls-14" transform="translate(630.22 1564.11)"><tspan x="0" y="0">ロビー</tspan></text>
    <text class="cls-14" transform="translate(603.02 1614.91)"><tspan x="0" y="0">(H2,600)</tspan></text>
    <text class="cls-14" transform="translate(1940.47 149.29)"><tspan x="0" y="0">6階</tspan></text>
    <text class="cls-11" transform="translate(2032.09 149.29)"><tspan x="0" y="0">芙蓉の間</tspan></text>
    <text class="cls-14" transform="translate(2314.2 149.29)"><tspan x="0" y="0">330㎡　(100T)　s=1:100</tspan></text>
    <text class="cls-11" transform="translate(35.38 55.88)"><tspan x="0" y="0">ユニコーンホテル</tspan></text>
    <text class="cls-14" transform="translate(6.22 187.93)"><tspan x="0" y="0">宴会日：　　　　　　年　　　月　　　日（　　　）</tspan></text>
    <text class="cls-14" transform="translate(6.22 295.84)"><tspan x="0" y="0">会合名：</tspan></text>
	<line class="cls-1" x1="1.27" y1="206.8" x2="1001.27" y2="206.8"/>
	<line class="cls-1" x1="1.27" y1="316.79" x2="1001.27" y2="316.79"/>
	<path class="cls-8" d="M3709.08,616.51v87.67-87.67ZM1259.11,616.51v87.67-87.67Z"/>
	<path class="cls-5" d="M3709.08,616.51v87.67-87.67M1259.11,616.51v87.67-87.67"/>
	<path class="cls-5" d="M2484.1,651.79h1205.19M2484.1,651.79h-1205.19"/>
	<polygon class="cls-9" points="1280.7 658.99 1259.11 651.79 1280.7 644.59 1280.7 658.99"/>
	<polygon class="cls-9" points="3687.49 644.59 3709.08 651.79 3687.49 658.99 3687.49 644.59"/>
	<rect class="cls-10" x="2426.63" y="600.64" width="114.93" height="42.33"/>
    <text class="cls-13" transform="translate(2426.63 632.39)"><tspan x="0" y="0">2450cm</tspan></text>
	<path class="cls-8" d="M2641.33,876.79h87.63-87.63ZM2641.33,2186.79h87.63-87.63Z"/>
	<path class="cls-5" d="M2641.33,876.79h87.63-87.63M2641.33,2186.79h87.63-87.63"/>
	<path class="cls-5" d="M2676.61,1531.79v-635.21M2676.61,1531.79v635.21"/>
	<polygon class="cls-9" points="2683.81 2165.2 2676.61 2186.79 2669.41 2165.2 2683.81 2165.2"/>
	<polygon class="cls-9" points="2669.41 898.38 2676.61 876.79 2683.81 898.38 2669.41 898.38"/>
	<rect class="cls-10" x="2625.46" y="1474.33" width="42.33" height="114.93"/>
    <text class="cls-13" transform="translate(2657.21 1589.26) rotate(-90)"><tspan x="0" y="0">1310cm</tspan></text>
	<path class="cls-8" d="M3709.08,751.52v87.67-87.67ZM2559.1,751.52v87.67-87.67Z"/>
	<path class="cls-5" d="M3709.08,751.52v87.67-87.67M2559.1,751.52v87.67-87.67"/>
	<path class="cls-5" d="M3134.09,786.8h555.2M3134.09,786.8h-555.2"/>
	<polygon class="cls-9" points="2580.69 793.99 2559.1 786.8 2580.69 779.6 2580.69 793.99"/>
	<polygon class="cls-9" points="3687.49 779.6 3709.08 786.8 3687.49 793.99 3687.49 779.6"/>
	<rect class="cls-10" x="3076.62" y="735.64" width="114.93" height="42.33"/>
    <text class="cls-13" transform="translate(3076.62 767.4)"><tspan x="0" y="0">1150cm</tspan></text>
	<path class="cls-8" d="M2459.09,1081.51v87.67-87.67ZM1259.11,1081.51v87.67-87.67Z"/>
	<path class="cls-5" d="M2459.09,1081.51v87.67-87.67M1259.11,1081.51v87.67-87.67"/>
	<path class="cls-5" d="M1859.12,1116.79h580.18M1859.12,1116.79h-580.21"/>
	<polygon class="cls-9" points="1280.7 1123.98 1259.11 1116.79 1280.7 1109.59 1280.7 1123.98"/>
	<polygon class="cls-9" points="2437.5 1109.59 2459.09 1116.79 2437.5 1123.98 2437.5 1109.59"/>
	<rect class="cls-10" x="1801.65" y="1065.63" width="114.93" height="42.33"/>
    <text class="cls-13" transform="translate(1801.65 1097.38)"><tspan x="0" y="0">1200cm</tspan></text>
	<rect class="cls-2" x="1625.76" y="316.79" width="100" height="100"/>
    <text class="cls-15" transform="translate(1522.05 281.69)"><tspan x="0" y="0">100cm×100cm</tspan></text>
	<rect class="cls-4" x="1980.98" y="316.79" width="100" height="100"/>
    <text class="cls-15" transform="translate(1877.27 281.69)"><tspan x="0" y="0">100cm×100cm</tspan></text>
    <text class="cls-15" transform="translate(1610.6 478.35)"><tspan x="0" y="0">線：1pt</tspan></text>
    <text class="cls-15" transform="translate(1973.03 478.35)"><tspan x="0" y="0">線：0.5pt</tspan></text>
	<rect class="cls-7" x="2379.56" y="316.79" width="100" height="100"/>
    <text class="cls-15" transform="translate(2275.85 281.69)"><tspan x="0" y="0">100cm×100cm</tspan></text>
    <text class="cls-15" transform="translate(2371.6 478.35)"><tspan x="0" y="0">線：0.1pt</tspan></text>
</svg>