<?xml version="1.0" encoding="UTF-8"?><svg id="_レイヤー_1" xmlns="http://www.w3.org/2000/svg" width="3810.35" height="2524.07" viewBox="0 0 3810.35 2524.07"><defs><style>.cls-1,.cls-2,.cls-3,.cls-4,.cls-5,.cls-6,.cls-7{fill:none;stroke:#000;stroke-linecap:round;stroke-linejoin:round;}.cls-1,.cls-3{stroke-width:2.54px;}.cls-8,.cls-9{fill-rule:evenodd;}.cls-8,.cls-10{fill:#fff;}.cls-11{font-size:63.5px;}.cls-11,.cls-12,.cls-13,.cls-14,.cls-15,.cls-6{font-family:KozGoPr6N-Regular-83pv-RKSJ-H, 'Kozuka Gothic Pr6N';}.cls-12{font-size:21.17px;}.cls-13,.cls-6{font-size:35.28px;}.cls-14,.cls-15{font-size:42.33px;}.cls-3{stroke-dasharray:0 12.7;}.cls-4{stroke-width:.5px;}.cls-5{stroke-width:.85px;}.cls-16{letter-spacing:-.25em;}.cls-15{fill:#231815;}.cls-6{stroke-width:.01px;}.cls-7{stroke-width:.1px;}</style></defs><rect x="1239.11" y="2186.81" width="100" height="100"/><rect class="cls-1" x="1239.11" y="2186.81" width="100" height="100"/><rect x="1849.1" y="2186.81" width="100" height="100"/><rect class="cls-1" x="1849.1" y="2186.81" width="100" height="100"/><rect x="2459.09" y="2186.81" width="100" height="100"/><rect class="cls-1" x="2459.09" y="2186.81" width="100" height="100"/><rect x="3069.11" y="2186.81" width="100" height="100"/><rect class="cls-1" x="3069.11" y="2186.81" width="100" height="100"/><rect x="1239.11" y="1386.82" width="100" height="100"/><rect class="cls-1" x="1239.11" y="1386.82" width="100" height="100"/><rect x="1239.11" y="1936.81" width="20" height="350"/><rect class="cls-1" x="1239.11" y="1936.81" width="20" height="350"/><rect x="1239.11" y="586.81" width="20" height="1149.98"/><rect class="cls-1" x="1239.11" y="586.81" width="20" height="1149.98"/><rect x="3709.08" y="856.82" width="20" height="1509.99"/><rect class="cls-1" x="3709.08" y="856.82" width="20" height="1509.99"/><rect x="1259.11" y="856.79" width="280" height="20"/><rect class="cls-1" x="1259.11" y="856.79" width="280" height="20"/><rect x="1239.11" y="2186.8" width="860" height="20"/><rect class="cls-1" x="1239.11" y="2186.8" width="860" height="20"/><rect x="2299.1" y="2186.8" width="415.01" height="20"/><rect class="cls-1" x="2299.1" y="2186.8" width="415.01" height="20"/><rect x="2914.1" y="2186.8" width="415.01" height="20"/><rect class="cls-1" x="2914.1" y="2186.8" width="415.01" height="20"/><rect x="3529.1" y="2186.8" width="200" height="20"/><rect class="cls-1" x="3529.1" y="2186.8" width="200" height="20"/><rect x="1639.09" y="856.79" width="530.01" height="20"/><rect class="cls-1" x="1639.09" y="856.79" width="530.01" height="20"/><rect x="2269.12" y="856.79" width="170" height="20"/><rect class="cls-1" x="2269.12" y="856.79" width="170" height="20"/><rect x="2481.1" y="856.79" width="60" height="20"/><rect class="cls-1" x="2481.1" y="856.79" width="60" height="20"/><rect x="2579.1" y="856.79" width="816.01" height="20"/><rect class="cls-1" x="2579.1" y="856.79" width="816.01" height="20"/><rect x="3495.09" y="856.79" width="234" height="20"/><rect class="cls-1" x="3495.09" y="856.79" width="234" height="20"/><line class="cls-3" x1="2459.09" y1="856.82" x2="2459.09" y2="2286.81"/><line class="cls-3" x1="2559.1" y1="856.82" x2="2559.1" y2="2286.81"/><rect x="3729.08" y="2336.8" width="80" height="20"/><rect class="cls-1" x="3729.08" y="2336.8" width="80" height="20"/><path class="cls-1" d="M1639.09,856.82c0,55.21-44.77,99.98-99.98,99.98"/><line class="cls-1" x1="1539.11" y1="856.82" x2="1539.11" y2="956.8"/><path class="cls-1" d="M2167.09,856.82c0,55.21,44.77,99.98,100.01,99.98"/><line class="cls-1" x1="2267.11" y1="856.82" x2="2267.11" y2="956.8"/><path class="cls-1" d="M3395.11,856.82c0,55.21,44.77,99.98,99.98,99.98"/><line class="cls-1" x1="3495.09" y1="856.82" x2="3495.09" y2="956.8"/><path class="cls-1" d="M1237.1,1636.81c-55.21,0-100.01,44.77-100.01,99.98s44.8,100.01,100.01,100.01"/><path class="cls-1" d="M1237.1,1836.8c-55.21,0-100.01,44.77-100.01,100.01s44.8,99.98,100.01,99.98"/><path class="cls-1" d="M1999.1,2206.8c0,55.24,44.77,100.01,100.01,100.01s99.98-44.77,99.98-100.01"/><path class="cls-1" d="M2199.09,2206.8c0,55.24,44.77,100.01,100.01,100.01s100.01-44.77,100.01-100.01"/><path class="cls-1" d="M2615.08,2206.8c0,55.24,44.8,100.01,100.01,100.01s100.01-44.77,100.01-100.01"/><path class="cls-1" d="M2815.11,2206.8c0,55.24,44.77,100.01,99.98,100.01s100.01-44.77,100.01-100.01"/><path class="cls-1" d="M3229.09,2206.8c0,55.24,44.77,100.01,100.01,100.01s99.98-44.77,99.98-100.01"/><path class="cls-1" d="M3429.08,2206.8c0,55.24,44.8,100.01,100.01,100.01s100.01-44.77,100.01-100.01"/><line class="cls-1" x1="137.1" y1="2522.8" x2="3707.11" y2="2522.8"/><path class="cls-1" d="M3709.08,2453.21c51.51,3.77,90.17-34.92,86.43-86.4"/><line class="cls-1" x1="3709.08" y1="2366.82" x2="3795.51" y2="2366.82"/><path class="cls-1" d="M3709.08,2454.94c41.95-13.3,65.16,9.93,51.86,51.87"/><line class="cls-1" x1="3709.08" y1="2506.81" x2="3760.94" y2="2506.81"/><line class="cls-1" x1="3707.11" y1="2506.81" x2="3707.11" y2="2522.8"/><line class="cls-1" x1="3722.1" y1="2522.8" x2="3792.09" y2="2522.8"/><line class="cls-1" x1="3722.1" y1="2506.81" x2="3722.1" y2="2522.8"/><line class="cls-1" x1="137.1" y1="2522.8" x2="137.1" y2="586.81"/><line class="cls-3" x1="1239.11" y1="586.81" x2="137.1" y2="586.81"/><rect x="629.09" y="586.82" width="100" height="100"/><rect class="cls-1" x="629.09" y="586.82" width="100" height="100"/><rect x="629.09" y="1386.82" width="100" height="100"/><rect class="cls-1" x="629.09" y="1386.82" width="100" height="100"/><rect x="629.09" y="2186.81" width="100" height="100"/><rect class="cls-1" x="629.09" y="2186.81" width="100" height="100"/><polyline class="cls-3" points="137.1 1876.81 452.1 1876.81 452.1 586.81 137.1 586.81 137.1 1876.81"/><text class="cls-14" transform="translate(268.16 1117.1)"><tspan x="0" y="0">エ</tspan></text><text class="cls-14" transform="translate(268.02 1167.9)"><tspan x="0" y="0">ス</tspan></text><text class="cls-14" transform="translate(269.65 1218.7)"><tspan x="0" y="0">カ</tspan></text><text class="cls-14" transform="translate(269.08 1269.5)"><tspan x="0" y="0">レ</tspan></text><text class="cls-14" transform="translate(265.94 1320.3)"><tspan x="0" y="0">｜</tspan></text><text class="cls-14" transform="translate(270.92 1371.1)"><tspan x="0" y="0">タ</tspan></text><text class="cls-14" transform="translate(265.94 1421.9)"><tspan x="0" y="0">｜</tspan></text><text class="cls-14" transform="translate(630.22 1564.11)"><tspan x="0" y="0">ロ</tspan></text><text class="cls-14" transform="translate(666.76 1564.11)"><tspan x="0" y="0">ビ</tspan></text><text class="cls-14" transform="translate(703.31 1564.11)"><tspan x="0" y="0">ー</tspan></text><text class="cls-14" transform="translate(603.02 1614.91)"><tspan x="0" y="0">（</tspan></text><text class="cls-14" transform="translate(624.19 1614.91)"><tspan x="0" y="0">Ｈ</tspan></text><text class="cls-14" transform="translate(656.75 1614.91)"><tspan x="0" y="0">2</tspan></text><text class="cls-14" transform="translate(677.91 1614.91)"><tspan x="0" y="0">,</tspan></text><text class="cls-14" transform="translate(686.52 1614.91)"><tspan x="0" y="0">6</tspan></text><text class="cls-14" transform="translate(707.69 1614.91)"><tspan x="0" y="0">0</tspan></text><text class="cls-14" transform="translate(728.86 1614.91)"><tspan x="0" y="0">0</tspan></text><text class="cls-14" transform="translate(750.02 1614.91)"><tspan x="0" y="0">）</tspan></text><text class="cls-14" transform="translate(1940.47 149.29)"><tspan x="0" y="0">6</tspan></text><text class="cls-14" transform="translate(1961.64 149.29)"><tspan x="0" y="0">階</tspan></text><text class="cls-14" transform="translate(2003.97 149.29)"><tspan x="0" y="0">　</tspan></text><text class="cls-11" transform="translate(2032.09 149.29)"><tspan x="0" y="0">芙</tspan></text><text class="cls-11" transform="translate(2095.58 149.29)"><tspan x="0" y="0">蓉</tspan></text><text class="cls-11" transform="translate(2159.08 149.29)"><tspan x="0" y="0">の</tspan></text><text class="cls-11" transform="translate(2222.58 149.29)"><tspan x="0" y="0">間</tspan></text><text class="cls-14" transform="translate(2286.08 149.29)"><tspan x="0" y="0">　</tspan></text><text class="cls-14" transform="translate(2314.2 149.29)"><tspan x="0" y="0">3</tspan></text><text class="cls-14" transform="translate(2335.37 149.29)"><tspan x="0" y="0">3</tspan></text><text class="cls-14" transform="translate(2356.53 149.29)"><tspan x="0" y="0">0</tspan></text><text class="cls-14" transform="translate(2377.7 149.29)"><tspan x="0" y="0">Ｍ</tspan></text><text class="cls-14" transform="translate(2417.22 149.29)"><tspan x="0" y="0">　</tspan></text><text class="cls-14" transform="translate(2445.33 149.29)"><tspan x="0" y="0">（</tspan></text><text class="cls-14" transform="translate(2466.49 149.29)"><tspan x="0" y="0">1</tspan></text><text class="cls-14" transform="translate(2487.66 149.29)"><tspan x="0" y="0">0</tspan></text><text class="cls-14" transform="translate(2508.83 149.29)"><tspan x="0" y="0">0</tspan></text><text class="cls-14" transform="translate(2529.99 149.29)"><tspan x="0" y="0">Ｔ</tspan></text><text class="cls-14" transform="translate(2556.13 149.29)"><tspan x="0" y="0">）</tspan></text><text class="cls-14" transform="translate(2577.29 149.29)"><tspan x="0" y="0">　</tspan></text><text class="cls-14" transform="translate(2605.4 149.29)"><tspan x="0" y="0">ｓ</tspan></text><text class="cls-14" transform="translate(2629.55 149.29)"><tspan x="0" y="0">＝</tspan></text><text class="cls-14" transform="translate(2671.88 149.29)"><tspan x="0" y="0">1</tspan></text><text class="cls-14" transform="translate(2693.05 149.29)"><tspan x="0" y="0">：</tspan></text><text class="cls-14" transform="translate(2714.21 149.29)"><tspan x="0" y="0">1</tspan></text><text class="cls-14" transform="translate(2735.38 149.29)"><tspan x="0" y="0">0</tspan></text><text class="cls-14" transform="translate(2756.55 149.29)"><tspan x="0" y="0">0</tspan></text><text class="cls-12" transform="translate(2418.31 128.52)"><tspan x="0" y="0">2</tspan></text><text class="cls-11" transform="translate(35.38 55.88)"><tspan x="0" y="0">ユ</tspan></text><text class="cls-11" transform="translate(98.88 55.88)"><tspan x="0" y="0">ニ</tspan></text><text class="cls-11" transform="translate(162.38 55.88)"><tspan x="0" y="0">コ</tspan></text><text class="cls-11" transform="translate(225.88 55.88)"><tspan x="0" y="0">ー</tspan></text><text class="cls-11" transform="translate(289.38 55.88)"><tspan x="0" y="0">ン</tspan></text><text class="cls-11" transform="translate(352.88 55.88)"><tspan x="0" y="0">ホ</tspan></text><text class="cls-11" transform="translate(416.38 55.88)"><tspan x="0" y="0">テ</tspan></text><text class="cls-11" transform="translate(479.88 55.88)"><tspan x="0" y="0">ル</tspan></text><text class="cls-14" transform="translate(6.22 187.93)"><tspan x="0" y="0">宴</tspan></text><text class="cls-14" transform="translate(48.55 187.93)"><tspan x="0" y="0">会</tspan></text><text class="cls-14" transform="translate(90.88 187.93)"><tspan x="0" y="0">日</tspan></text><text class="cls-14" transform="translate(133.22 187.93)"><tspan x="0" y="0">：</tspan></text><text class="cls-14" transform="translate(154.38 187.93)"><tspan x="0" y="0">　</tspan></text><text class="cls-14" transform="translate(182.5 187.93)"><tspan x="0" y="0">　</tspan></text><text class="cls-14" transform="translate(210.61 187.93)"><tspan x="0" y="0">　</tspan></text><text class="cls-14" transform="translate(238.72 187.93)"><tspan x="0" y="0">　</tspan></text><text class="cls-14" transform="translate(266.83 187.93)"><tspan x="0" y="0">　</tspan></text><text class="cls-14" transform="translate(294.95 187.93)"><tspan x="0" y="0">　</tspan></text><text class="cls-14" transform="translate(323.06 187.93)"><tspan x="0" y="0">年</tspan></text><text class="cls-14" transform="translate(365.39 187.93)"><tspan x="0" y="0">　</tspan></text><text class="cls-14" transform="translate(393.5 187.93)"><tspan x="0" y="0">　</tspan></text><text class="cls-14" transform="translate(421.61 187.93)"><tspan x="0" y="0">　</tspan></text><text class="cls-14" transform="translate(449.73 187.93)"><tspan x="0" y="0">　</tspan></text><text class="cls-14" transform="translate(477.84 187.93)"><tspan x="0" y="0">　</tspan></text><text class="cls-14" transform="translate(505.95 187.93)"><tspan x="0" y="0">　</tspan></text><text class="cls-14" transform="translate(534.05 187.93)"><tspan x="0" y="0">月</tspan></text><text class="cls-14" transform="translate(576.39 187.93)"><tspan x="0" y="0">　</tspan></text><text class="cls-14" transform="translate(604.5 187.93)"><tspan x="0" y="0">　</tspan></text><text class="cls-14" transform="translate(632.61 187.93)"><tspan x="0" y="0">　</tspan></text><text class="cls-14" transform="translate(660.72 187.93)"><tspan x="0" y="0">　</tspan></text><text class="cls-14" transform="translate(688.84 187.93)"><tspan x="0" y="0">　</tspan></text><text class="cls-14" transform="translate(716.95 187.93)"><tspan x="0" y="0">　</tspan></text><text class="cls-14" transform="translate(745.08 187.93)"><tspan x="0" y="0">日</tspan></text><text class="cls-14" transform="translate(787.42 187.93)"><tspan x="0" y="0">（</tspan></text><text class="cls-14" transform="translate(808.58 187.93)"><tspan x="0" y="0">　</tspan></text><text class="cls-14" transform="translate(836.7 187.93)"><tspan x="0" y="0">　</tspan></text><text class="cls-14" transform="translate(864.81 187.93)"><tspan x="0" y="0">　</tspan></text><text class="cls-14" transform="translate(892.92 187.93)"><tspan x="0" y="0">　</tspan></text><text class="cls-14" transform="translate(921.03 187.93)"><tspan x="0" y="0">　</tspan></text><text class="cls-14" transform="translate(949.15 187.93)"><tspan x="0" y="0">）</tspan></text><text class="cls-14" transform="translate(6.22 295.84)"><tspan x="0" y="0">会</tspan></text><text class="cls-14" transform="translate(48.55 295.84)"><tspan x="0" y="0">合</tspan></text><text class="cls-14" transform="translate(90.88 295.84)"><tspan x="0" y="0">名</tspan></text><text class="cls-14" transform="translate(133.22 295.84)"><tspan x="0" y="0">：</tspan></text><text class="cls-14" transform="translate(154.38 295.84)"><tspan x="0" y="0">　</tspan></text><text class="cls-14" transform="translate(182.5 295.84)"><tspan x="0" y="0">　</tspan></text><text class="cls-14" transform="translate(210.61 295.84)"><tspan x="0" y="0">　</tspan></text><text class="cls-14" transform="translate(238.72 295.84)"><tspan x="0" y="0">　</tspan></text><text class="cls-14" transform="translate(266.83 295.84)"><tspan x="0" y="0">　</tspan></text><text class="cls-14" transform="translate(294.95 295.84)"><tspan x="0" y="0">　</tspan></text><text class="cls-14" transform="translate(323.06 295.84)"><tspan x="0" y="0">　</tspan></text><text class="cls-14" transform="translate(351.17 295.84)"><tspan x="0" y="0">　</tspan></text><text class="cls-14" transform="translate(379.28 295.84)"><tspan x="0" y="0">　</tspan></text><text class="cls-14" transform="translate(407.4 295.84)"><tspan x="0" y="0">　</tspan></text><text class="cls-14" transform="translate(435.51 295.84)"><tspan x="0" y="0">　</tspan></text><line class="cls-1" x1="1.27" y1="206.8" x2="1001.27" y2="206.8"/><line class="cls-1" x1="1.27" y1="316.79" x2="1001.27" y2="316.79"/><path class="cls-8" d="M3709.08,616.51v87.67-87.67ZM1259.11,616.51v87.67-87.67Z"/><path class="cls-5" d="M3709.08,616.51v87.67-87.67M1259.11,616.51v87.67-87.67"/><path class="cls-5" d="M2484.1,651.79h1205.19M2484.1,651.79h-1205.19"/><polygon class="cls-9" points="1280.7 658.99 1259.11 651.79 1280.7 644.59 1280.7 658.99"/><polygon class="cls-9" points="3687.49 644.59 3709.08 651.79 3687.49 658.99 3687.49 644.59"/><rect class="cls-10" x="2426.63" y="600.64" width="114.93" height="42.33"/><text class="cls-13" transform="translate(2426.63 632.39)"><tspan x="0" y="0">2</tspan></text><text class="cls-6" transform="translate(2426.63 632.39)"><tspan x="0" y="0">2</tspan></text><text class="cls-13" transform="translate(2444.41 632.39)"><tspan x="0" y="0">4</tspan></text><text class="cls-6" transform="translate(2444.41 632.39)"><tspan x="0" y="0">4</tspan></text><text class="cls-13" transform="translate(2462.18 632.39)"><tspan x="0" y="0">5</tspan></text><text class="cls-6" transform="translate(2462.18 632.39)"><tspan x="0" y="0">5</tspan></text><text class="cls-13" transform="translate(2479.96 632.39)"><tspan x="0" y="0">0</tspan></text><text class="cls-6" transform="translate(2479.96 632.39)"><tspan x="0" y="0">0</tspan></text><text class="cls-13" transform="translate(2497.75 632.39)"><tspan x="0" y="0">c</tspan></text><text class="cls-6" transform="translate(2497.75 632.39)"><tspan x="0" y="0">c</tspan></text><text class="cls-13" transform="translate(2515.53 632.39)"><tspan x="0" y="0">m</tspan></text><text class="cls-6" transform="translate(2515.53 632.39)"><tspan x="0" y="0">m</tspan></text><path class="cls-8" d="M2641.33,876.79h87.63-87.63ZM2641.33,2186.79h87.63-87.63Z"/><path class="cls-5" d="M2641.33,876.79h87.63-87.63M2641.33,2186.79h87.63-87.63"/><path class="cls-5" d="M2676.61,1531.79v-635.21M2676.61,1531.79v635.21"/><polygon class="cls-9" points="2683.81 2165.2 2676.61 2186.79 2669.41 2165.2 2683.81 2165.2"/><polygon class="cls-9" points="2669.41 898.38 2676.61 876.79 2683.81 898.38 2669.41 898.38"/><rect class="cls-10" x="2625.46" y="1474.33" width="42.33" height="114.93"/><text class="cls-13" transform="translate(2657.21 1589.26) rotate(-90)"><tspan x="0" y="0">1</tspan></text><text class="cls-6" transform="translate(2657.21 1589.26) rotate(-90)"><tspan x="0" y="0">1</tspan></text><text class="cls-13" transform="translate(2657.21 1571.48) rotate(-90)"><tspan x="0" y="0">3</tspan></text><text class="cls-6" transform="translate(2657.21 1571.48) rotate(-90)"><tspan x="0" y="0">3</tspan></text><text class="cls-13" transform="translate(2657.21 1553.71) rotate(-90)"><tspan x="0" y="0">1</tspan></text><text class="cls-6" transform="translate(2657.21 1553.71) rotate(-90)"><tspan x="0" y="0">1</tspan></text><text class="cls-13" transform="translate(2657.21 1535.93) rotate(-90)"><tspan x="0" y="0">0</tspan></text><text class="cls-6" transform="translate(2657.21 1535.93) rotate(-90)"><tspan x="0" y="0">0</tspan></text><text class="cls-13" transform="translate(2657.21 1518.17) rotate(-90)"><tspan x="0" y="0">c</tspan></text><text class="cls-6" transform="translate(2657.21 1518.17) rotate(-90)"><tspan x="0" y="0">c</tspan></text><text class="cls-13" transform="translate(2657.21 1500.4) rotate(-90)"><tspan x="0" y="0">m</tspan></text><text class="cls-6" transform="translate(2657.21 1500.4) rotate(-90)"><tspan x="0" y="0">m</tspan></text><path class="cls-8" d="M3709.08,751.52v87.67-87.67ZM2559.1,751.52v87.67-87.67Z"/><path class="cls-5" d="M3709.08,751.52v87.67-87.67M2559.1,751.52v87.67-87.67"/><path class="cls-5" d="M3134.09,786.8h555.2M3134.09,786.8h-555.2"/><polygon class="cls-9" points="2580.69 793.99 2559.1 786.8 2580.69 779.6 2580.69 793.99"/><polygon class="cls-9" points="3687.49 779.6 3709.08 786.8 3687.49 793.99 3687.49 779.6"/><rect class="cls-10" x="3076.62" y="735.64" width="114.93" height="42.33"/><text class="cls-13" transform="translate(3076.62 767.4)"><tspan x="0" y="0">1</tspan></text><text class="cls-6" transform="translate(3076.62 767.4)"><tspan x="0" y="0">1</tspan></text><text class="cls-13" transform="translate(3094.4 767.4)"><tspan x="0" y="0">1</tspan></text><text class="cls-6" transform="translate(3094.4 767.4)"><tspan x="0" y="0">1</tspan></text><text class="cls-13" transform="translate(3112.18 767.4)"><tspan x="0" y="0">5</tspan></text><text class="cls-6" transform="translate(3112.18 767.4)"><tspan x="0" y="0">5</tspan></text><text class="cls-13" transform="translate(3129.95 767.4)"><tspan x="0" y="0">0</tspan></text><text class="cls-6" transform="translate(3129.95 767.4)"><tspan x="0" y="0">0</tspan></text><text class="cls-13" transform="translate(3147.74 767.4)"><tspan x="0" y="0">c</tspan></text><text class="cls-6" transform="translate(3147.74 767.4)"><tspan x="0" y="0">c</tspan></text><text class="cls-13" transform="translate(3165.52 767.4)"><tspan x="0" y="0">m</tspan></text><text class="cls-6" transform="translate(3165.52 767.4)"><tspan x="0" y="0">m</tspan></text><path class="cls-8" d="M2459.09,1081.51v87.67-87.67ZM1259.11,1081.51v87.67-87.67Z"/><path class="cls-5" d="M2459.09,1081.51v87.67-87.67M1259.11,1081.51v87.67-87.67"/><path class="cls-5" d="M1859.12,1116.79h580.18M1859.12,1116.79h-580.21"/><polygon class="cls-9" points="1280.7 1123.98 1259.11 1116.79 1280.7 1109.59 1280.7 1123.98"/><polygon class="cls-9" points="2437.5 1109.59 2459.09 1116.79 2437.5 1123.98 2437.5 1109.59"/><rect class="cls-10" x="1801.65" y="1065.63" width="114.93" height="42.33"/><text class="cls-13" transform="translate(1801.65 1097.38)"><tspan x="0" y="0">1</tspan></text><text class="cls-6" transform="translate(1801.65 1097.38)"><tspan x="0" y="0">1</tspan></text><text class="cls-13" transform="translate(1819.43 1097.38)"><tspan x="0" y="0">2</tspan></text><text class="cls-6" transform="translate(1819.43 1097.38)"><tspan x="0" y="0">2</tspan></text><text class="cls-13" transform="translate(1837.2 1097.38)"><tspan x="0" y="0">0</tspan></text><text class="cls-6" transform="translate(1837.2 1097.38)"><tspan x="0" y="0">0</tspan></text><text class="cls-13" transform="translate(1854.98 1097.38)"><tspan x="0" y="0">0</tspan></text><text class="cls-6" transform="translate(1854.98 1097.38)"><tspan x="0" y="0">0</tspan></text><text class="cls-13" transform="translate(1872.74 1097.38)"><tspan x="0" y="0">c</tspan></text><text class="cls-6" transform="translate(1872.74 1097.38)"><tspan x="0" y="0">c</tspan></text><text class="cls-13" transform="translate(1890.51 1097.38)"><tspan x="0" y="0">m</tspan></text><text class="cls-6" transform="translate(1890.51 1097.38)"><tspan x="0" y="0">m</tspan></text><rect class="cls-2" x="1625.76" y="316.79" width="100" height="100"/><text class="cls-15" transform="translate(1522.05 281.69)"><tspan x="0" y="0">100cm×100cm</tspan></text><rect class="cls-4" x="1980.98" y="316.79" width="100" height="100"/><text class="cls-15" transform="translate(1877.27 281.69)"><tspan x="0" y="0">100cm×100cm</tspan></text><text class="cls-15" transform="translate(1610.6 478.35)"><tspan class="cls-16" x="0" y="0">線：</tspan><tspan x="63.5" y="0">1pt</tspan></text><text class="cls-15" transform="translate(1973.03 478.35)"><tspan class="cls-16" x="0" y="0">線：</tspan><tspan x="63.5" y="0">0.5pt</tspan></text><rect class="cls-7" x="2379.56" y="316.79" width="100" height="100"/><text class="cls-15" transform="translate(2275.85 281.69)"><tspan x="0" y="0">100cm×100cm</tspan></text><text class="cls-15" transform="translate(2371.6 478.35)"><tspan class="cls-16" x="0" y="0">線：</tspan><tspan x="63.5" y="0">0.1pt</tspan></text></svg>